<svg width="340" height="492" viewBox="0 0 340 492" fill="none" xmlns="http://www.w3.org/2000/svg">
<g clip-path="url(#clip0_1_83)">
<g opacity="0.4">
<path d="M0.381964 0L800.825 0.381442L800.443 799.619L0 799.238L0.381964 0ZM799.67 1.53411L1.53637 1.15377L1.15551 798.085L799.289 798.465L799.67 1.53411Z" fill="#0EACEF"/>
<path d="M800.231 31.0565L0.942867 30.6756L0.942315 31.8289L800.23 32.2097L800.231 31.0565Z" fill="#0EACEF"/>
<path d="M800.216 61.7901L0.927682 61.4093L0.927131 62.5625L800.215 62.9434L800.216 61.7901Z" fill="#0EACEF"/>
<path d="M800.203 92.4654L0.914395 92.0845L0.913844 93.2378L800.202 93.6187L800.203 92.4654Z" fill="#0EACEF"/>
<path d="M800.185 123.141L0.897313 122.761L0.896762 123.914L800.185 124.295L800.185 123.141Z" fill="#0EACEF"/>
<path d="M800.17 153.874L0.882128 153.494L0.881577 154.647L800.17 155.028L800.17 153.874Z" fill="#0EACEF"/>
<path d="M800.157 184.55L0.868842 184.169L0.86829 185.322L800.156 185.703L800.157 184.55Z" fill="#0EACEF"/>
<path d="M800.142 215.226L0.853657 214.845L0.853106 215.998L800.141 216.379L800.142 215.226Z" fill="#0EACEF"/>
<path d="M800.129 245.959L0.84037 245.578L0.839819 246.731L800.128 247.112L800.129 245.959Z" fill="#0EACEF"/>
<path d="M800.113 276.635L0.825186 276.254L0.824635 277.407L800.113 277.788L800.113 276.635Z" fill="#0EACEF"/>
<path d="M800.098 307.31L0.810001 306.929L0.80945 308.082L800.098 308.463L800.098 307.31Z" fill="#0EACEF"/>
<path d="M800.083 338.044L0.794817 337.663L0.794266 338.816L800.082 339.197L800.083 338.044Z" fill="#0EACEF"/>
<path d="M800.068 368.719L0.779632 368.338L0.779081 369.491L800.067 369.872L800.068 368.719Z" fill="#0EACEF"/>
<path d="M800.055 399.394L0.766345 399.013L0.765794 400.167L800.054 400.547L800.055 399.394Z" fill="#0EACEF"/>
<path d="M800.039 430.128L0.751161 429.747L0.75061 430.9L800.039 431.281L800.039 430.128Z" fill="#0EACEF"/>
<path d="M800.024 460.803L0.735976 460.422L0.735425 461.576L800.024 461.956L800.024 460.803Z" fill="#0EACEF"/>
<path d="M800.011 491.479L0.72269 491.098L0.722139 492.251L800.01 492.632L800.011 491.479Z" fill="#0EACEF"/>
<path d="M799.996 522.212L0.707505 521.831L0.706954 522.985L799.995 523.366L799.996 522.212Z" fill="#0EACEF"/>
<path d="M799.98 552.888L0.692321 552.507L0.691769 553.66L799.98 554.041L799.98 552.888Z" fill="#0EACEF"/>
<path d="M799.967 583.621L0.679034 583.24L0.678483 584.394L799.967 584.775L799.967 583.621Z" fill="#0EACEF"/>
<path d="M799.952 614.297L0.663849 613.916L0.663298 615.069L799.951 615.45L799.952 614.297Z" fill="#0EACEF"/>
<path d="M799.937 644.972L0.648665 644.592L0.648114 645.745L799.936 646.126L799.937 644.972Z" fill="#0EACEF"/>
<path d="M799.922 675.706L0.63348 675.325L0.632929 676.478L799.921 676.859L799.922 675.706Z" fill="#0EACEF"/>
<path d="M799.905 706.381L0.616398 706L0.615846 707.153L799.904 707.534L799.905 706.381Z" fill="#0EACEF"/>
<path d="M799.891 737.057L0.603111 736.676L0.60256 737.829L799.891 738.21L799.891 737.057Z" fill="#0EACEF"/>
<path d="M799.876 767.79L0.587926 767.409L0.587375 768.562L799.875 768.943L799.876 767.79Z" fill="#0EACEF"/>
<path d="M32.2601 0.591662L31.1052 0.591112L30.7238 798.676L31.8787 798.676L32.2601 0.591662Z" fill="#0EACEF"/>
<path d="M63.0393 0.606351L61.8844 0.605801L61.503 798.69L62.6579 798.691L63.0393 0.606351Z" fill="#0EACEF"/>
<path d="M93.7635 0.620981L92.6085 0.620431L92.2271 798.705L93.3821 798.705L93.7635 0.620981Z" fill="#0EACEF"/>
<path d="M124.476 0.635611L123.321 0.63506L122.94 798.719L124.095 798.72L124.476 0.635611Z" fill="#0EACEF"/>
<path d="M155.257 0.650359L154.102 0.649809L153.721 798.734L154.876 798.735L155.257 0.650359Z" fill="#0EACEF"/>
<path d="M185.98 0.664989L184.825 0.664438L184.443 798.749L185.598 798.749L185.98 0.664989Z" fill="#0EACEF"/>
<path d="M216.704 0.6795L215.549 0.67895L215.167 798.763L216.322 798.764L216.704 0.6795Z" fill="#0EACEF"/>
<path d="M247.485 0.694248L246.33 0.693698L245.949 798.778L247.103 798.779L247.485 0.694248Z" fill="#0EACEF"/>
<path d="M278.205 0.708878L277.05 0.708328L276.669 798.793L277.824 798.793L278.205 0.708878Z" fill="#0EACEF"/>
<path d="M308.929 0.723508L307.774 0.722957L307.393 798.807L308.548 798.808L308.929 0.723508Z" fill="#0EACEF"/>
<path d="M339.709 0.738256L338.554 0.737705L338.172 798.822L339.327 798.823L339.709 0.738256Z" fill="#0EACEF"/>
<path d="M370.433 0.752826L369.278 0.752276L368.896 798.837L370.051 798.837L370.433 0.752826Z" fill="#0EACEF"/>
<path d="M401.147 0.767456L399.992 0.766906L399.611 798.851L400.766 798.852L401.147 0.767456Z" fill="#0EACEF"/>
<path d="M431.927 0.782204L430.772 0.781654L430.39 798.866L431.545 798.867L431.927 0.782204Z" fill="#0EACEF"/>
<path d="M462.653 0.796775L461.498 0.796224L461.116 798.881L462.271 798.881L462.653 0.796775Z" fill="#0EACEF"/>
<path d="M493.373 0.811404L492.218 0.810854L491.837 798.895L492.992 798.896L493.373 0.811404Z" fill="#0EACEF"/>
<path d="M524.152 0.826093L522.997 0.825543L522.616 798.91L523.771 798.911L524.152 0.826093Z" fill="#0EACEF"/>
<path d="M554.876 0.840723L553.721 0.840173L553.34 798.925L554.495 798.925L554.876 0.840723Z" fill="#0EACEF"/>
<path d="M585.6 0.855353L584.446 0.854802L584.064 798.939L585.219 798.94L585.6 0.855353Z" fill="#0EACEF"/>
<path d="M616.38 0.870101L615.225 0.869551L614.843 798.954L615.998 798.955L616.38 0.870101Z" fill="#0EACEF"/>
<path d="M647.094 0.884731L645.939 0.88418L645.558 798.969L646.713 798.969L647.094 0.884731Z" fill="#0EACEF"/>
<path d="M677.874 0.899301L676.719 0.898751L676.337 798.983L677.492 798.984L677.874 0.899301Z" fill="#0EACEF"/>
<path d="M708.6 0.91399L707.445 0.91344L707.063 798.998L708.218 798.998L708.6 0.91399Z" fill="#0EACEF"/>
<path d="M739.322 0.92862L738.167 0.92807L737.786 799.013L738.94 799.013L739.322 0.92862Z" fill="#0EACEF"/>
<path d="M770.103 0.94325L768.948 0.942699L768.567 799.027L769.721 799.028L770.103 0.94325Z" fill="#0EACEF"/>
<path d="M799.557 0.380906L1600 0.762348L1599.62 800L799.175 799.619L799.557 0.380906ZM1598.84 1.91501L800.711 1.53467L800.33 798.466L1598.46 798.846L1598.84 1.91501Z" fill="#0EACEF"/>
<path d="M1599.41 31.4374L800.117 31.0565L800.116 32.2097L1599.4 32.5906L1599.41 31.4374Z" fill="#0EACEF"/>
<path d="M1599.39 62.171L800.102 61.7901L800.101 62.9434L1599.39 63.3242L1599.39 62.171Z" fill="#0EACEF"/>
<path d="M1599.38 92.8464L800.088 92.4655L800.088 93.6187L1599.38 93.9996L1599.38 92.8464Z" fill="#0EACEF"/>
<path d="M1599.36 123.522L800.073 123.141L800.073 124.295L1599.36 124.675L1599.36 123.522Z" fill="#0EACEF"/>
<path d="M1599.35 154.255L800.058 153.874L800.057 155.028L1599.35 155.409L1599.35 154.255Z" fill="#0EACEF"/>
<path d="M1599.33 184.931L800.045 184.55L800.044 185.703L1599.33 186.084L1599.33 184.931Z" fill="#0EACEF"/>
<path d="M1599.32 215.607L800.03 215.226L800.029 216.379L1599.32 216.76L1599.32 215.607Z" fill="#0EACEF"/>
<path d="M1599.3 246.34L800.016 245.959L800.016 247.112L1599.3 247.493L1599.3 246.34Z" fill="#0EACEF"/>
<path d="M1599.29 277.016L800.001 276.635L800.001 277.788L1599.29 278.169L1599.29 277.016Z" fill="#0EACEF"/>
<path d="M1599.27 307.691L799.984 307.31L799.984 308.463L1599.27 308.844L1599.27 307.691Z" fill="#0EACEF"/>
<path d="M1599.26 338.425L799.969 338.044L799.968 339.197L1599.26 339.578L1599.26 338.425Z" fill="#0EACEF"/>
<path d="M1599.24 369.1L799.954 368.719L799.953 369.872L1599.24 370.253L1599.24 369.1Z" fill="#0EACEF"/>
<path d="M1599.23 399.775L799.94 399.394L799.94 400.547L1599.23 400.928L1599.23 399.775Z" fill="#0EACEF"/>
<path d="M1599.21 430.509L799.925 430.128L799.925 431.281L1599.21 431.662L1599.21 430.509Z" fill="#0EACEF"/>
<path d="M1599.2 461.184L799.91 460.803L799.909 461.957L1599.2 462.337L1599.2 461.184Z" fill="#0EACEF"/>
<path d="M1599.18 491.86L799.897 491.479L799.896 492.632L1599.18 493.013L1599.18 491.86Z" fill="#0EACEF"/>
<path d="M1599.17 522.593L799.882 522.212L799.881 523.365L1599.17 523.746L1599.17 522.593Z" fill="#0EACEF"/>
<path d="M1599.15 553.268L799.865 552.888L799.864 554.041L1599.15 554.422L1599.15 553.268Z" fill="#0EACEF"/>
<path d="M1599.14 584.002L799.851 583.621L799.851 584.775L1599.14 585.155L1599.14 584.002Z" fill="#0EACEF"/>
<path d="M1599.12 614.677L799.836 614.297L799.835 615.45L1599.12 615.831L1599.12 614.677Z" fill="#0EACEF"/>
<path d="M1599.11 645.353L799.823 644.972L799.822 646.126L1599.11 646.507L1599.11 645.353Z" fill="#0EACEF"/>
<path d="M1599.1 676.086L799.808 675.706L799.807 676.859L1599.1 677.24L1599.1 676.086Z" fill="#0EACEF"/>
<path d="M1599.08 706.762L799.792 706.381L799.792 707.534L1599.08 707.915L1599.08 706.762Z" fill="#0EACEF"/>
<path d="M1599.07 737.438L799.779 737.057L799.779 738.21L1599.07 738.591L1599.07 737.438Z" fill="#0EACEF"/>
<path d="M1599.05 768.171L799.764 767.79L799.763 768.943L1599.05 769.324L1599.05 768.171Z" fill="#0EACEF"/>
<path d="M831.436 0.972533L830.281 0.971982L829.9 799.056L831.055 799.057L831.436 0.972533Z" fill="#0EACEF"/>
<path d="M862.215 0.987222L861.06 0.986671L860.679 799.071L861.834 799.072L862.215 0.987222Z" fill="#0EACEF"/>
<path d="M892.938 1.00191L891.783 1.00136L891.401 799.086L892.556 799.086L892.938 1.00191Z" fill="#0EACEF"/>
<path d="M923.648 1.01648L922.493 1.01593L922.112 799.1L923.267 799.101L923.648 1.01648Z" fill="#0EACEF"/>
<path d="M954.43 1.03123L953.275 1.03068L952.893 799.115L954.048 799.116L954.43 1.03123Z" fill="#0EACEF"/>
<path d="M985.152 1.0458L983.997 1.04525L983.615 799.13L984.77 799.13L985.152 1.0458Z" fill="#0EACEF"/>
<path d="M1015.88 1.06043L1014.72 1.05988L1014.34 799.144L1015.49 799.145L1015.88 1.06043Z" fill="#0EACEF"/>
<path d="M1046.66 1.07518L1045.5 1.07463L1045.12 799.159L1046.28 799.16L1046.66 1.07518Z" fill="#0EACEF"/>
<path d="M1077.38 1.08981L1076.23 1.08926L1075.84 799.174L1077 799.174L1077.38 1.08981Z" fill="#0EACEF"/>
<path d="M1108.11 1.10444L1106.95 1.10389L1106.57 799.188L1107.72 799.189L1108.11 1.10444Z" fill="#0EACEF"/>
<path d="M1138.88 1.11913L1137.73 1.11858L1137.35 799.203L1138.5 799.204L1138.88 1.11913Z" fill="#0EACEF"/>
<path d="M1169.61 1.1337L1168.45 1.13315L1168.07 799.218L1169.23 799.218L1169.61 1.1337Z" fill="#0EACEF"/>
<path d="M1200.32 1.14833L1199.17 1.14778L1198.79 799.232L1199.94 799.233L1200.32 1.14833Z" fill="#0EACEF"/>
<path d="M1231.1 1.16307L1229.95 1.16252L1229.56 799.247L1230.72 799.247L1231.1 1.16307Z" fill="#0EACEF"/>
<path d="M1261.82 1.1777L1260.67 1.17715L1260.29 799.262L1261.44 799.262L1261.82 1.1777Z" fill="#0EACEF"/>
<path d="M1292.55 1.19227L1291.39 1.19172L1291.01 799.276L1292.17 799.277L1292.55 1.19227Z" fill="#0EACEF"/>
<path d="M1323.33 1.20702L1322.17 1.20647L1321.79 799.291L1322.95 799.292L1323.33 1.20702Z" fill="#0EACEF"/>
<path d="M1354.05 1.22165L1352.9 1.2211L1352.52 799.306L1353.67 799.306L1354.05 1.22165Z" fill="#0EACEF"/>
<path d="M1384.77 1.23628L1383.62 1.23573L1383.24 799.32L1384.39 799.321L1384.77 1.23628Z" fill="#0EACEF"/>
<path d="M1415.56 1.25097L1414.4 1.25042L1414.02 799.335L1415.17 799.335L1415.56 1.25097Z" fill="#0EACEF"/>
<path d="M1446.27 1.26554L1445.11 1.26499L1444.73 799.349L1445.89 799.35L1446.27 1.26554Z" fill="#0EACEF"/>
<path d="M1477.05 1.28017L1475.89 1.27962L1475.51 799.364L1476.67 799.365L1477.05 1.28017Z" fill="#0EACEF"/>
<path d="M1507.77 1.29492L1506.62 1.29437L1506.24 799.379L1507.39 799.379L1507.77 1.29492Z" fill="#0EACEF"/>
<path d="M1538.5 1.30955L1537.34 1.309L1536.96 799.393L1538.12 799.394L1538.5 1.30955Z" fill="#0EACEF"/>
<path d="M1569.28 1.32418L1568.12 1.32363L1567.74 799.408L1568.9 799.409L1569.28 1.32418Z" fill="#0EACEF"/>
</g>
</g>
<defs>
<clipPath id="clip0_1_83">
<rect width="340" height="492" fill="white"/>
</clipPath>
</defs>
</svg>
