<svg width="1232" height="647" viewBox="0 0 1232 647" fill="none" xmlns="http://www.w3.org/2000/svg">
<g clip-path="url(#clip0_183_690)">
<g opacity="0.4">
<path d="M-183.618 0L616.825 0.381953L616.443 800.691L-184 800.309L-183.618 0ZM615.67 1.53616L-182.464 1.15531L-182.844 799.155L615.289 799.536L615.67 1.53616Z" fill="#0EACEF"/>
<path d="M616.231 31.0982L-183.057 30.7168L-183.058 31.8715L616.23 32.2529L616.231 31.0982Z" fill="#0EACEF"/>
<path d="M616.216 61.873L-183.072 61.4916L-183.073 62.6463L616.215 63.0277L616.216 61.873Z" fill="#0EACEF"/>
<path d="M616.203 92.5894L-183.086 92.208L-183.086 93.3627L616.202 93.7441L616.203 92.5894Z" fill="#0EACEF"/>
<path d="M616.185 123.306L-183.103 122.925L-183.103 124.08L616.185 124.461L616.185 123.306Z" fill="#0EACEF"/>
<path d="M616.17 154.081L-183.118 153.699L-183.118 154.854L616.17 155.236L616.17 154.081Z" fill="#0EACEF"/>
<path d="M616.157 184.797L-183.131 184.416L-183.132 185.571L616.156 185.952L616.157 184.797Z" fill="#0EACEF"/>
<path d="M616.142 215.514L-183.146 215.133L-183.147 216.288L616.141 216.669L616.142 215.514Z" fill="#0EACEF"/>
<path d="M616.129 246.288L-183.16 245.907L-183.16 247.062L616.128 247.443L616.129 246.288Z" fill="#0EACEF"/>
<path d="M616.113 277.005L-183.175 276.624L-183.175 277.779L616.113 278.16L616.113 277.005Z" fill="#0EACEF"/>
<path d="M616.098 307.722L-183.19 307.341L-183.191 308.495L616.098 308.877L616.098 307.722Z" fill="#0EACEF"/>
<path d="M616.083 338.497L-183.205 338.115L-183.206 339.27L616.082 339.652L616.083 338.497Z" fill="#0EACEF"/>
<path d="M616.068 369.213L-183.22 368.832L-183.221 369.987L616.067 370.368L616.068 369.213Z" fill="#0EACEF"/>
<path d="M616.055 399.93L-183.234 399.548L-183.234 400.703L616.054 401.084L616.055 399.93Z" fill="#0EACEF"/>
<path d="M616.039 430.705L-183.249 430.323L-183.249 431.478L616.039 431.859L616.039 430.705Z" fill="#0EACEF"/>
<path d="M616.024 461.421L-183.264 461.04L-183.265 462.194L616.024 462.576L616.024 461.421Z" fill="#0EACEF"/>
<path d="M616.011 492.138L-183.277 491.757L-183.278 492.911L616.01 493.293L616.011 492.138Z" fill="#0EACEF"/>
<path d="M615.996 522.912L-183.292 522.531L-183.293 523.686L615.995 524.067L615.996 522.912Z" fill="#0EACEF"/>
<path d="M615.98 553.629L-183.308 553.247L-183.308 554.402L615.98 554.784L615.98 553.629Z" fill="#0EACEF"/>
<path d="M615.967 584.404L-183.321 584.022L-183.322 585.177L615.967 585.558L615.967 584.404Z" fill="#0EACEF"/>
<path d="M615.952 615.12L-183.336 614.739L-183.337 615.893L615.951 616.275L615.952 615.12Z" fill="#0EACEF"/>
<path d="M615.937 645.837L-183.351 645.456L-183.352 646.61L615.936 646.992L615.937 645.837Z" fill="#0EACEF"/>
<path d="M615.922 676.611L-183.367 676.23L-183.367 677.385L615.921 677.766L615.922 676.611Z" fill="#0EACEF"/>
<path d="M615.905 707.328L-183.384 706.946L-183.384 708.101L615.904 708.482L615.905 707.328Z" fill="#0EACEF"/>
<path d="M615.891 738.045L-183.397 737.663L-183.397 738.818L615.891 739.2L615.891 738.045Z" fill="#0EACEF"/>
<path d="M615.876 768.819L-183.412 768.438L-183.413 769.592L615.875 769.974L615.876 768.819Z" fill="#0EACEF"/>
<path d="M-151.74 0.592456L-152.895 0.591904L-153.276 799.746L-152.121 799.747L-151.74 0.592456Z" fill="#0EACEF"/>
<path d="M-120.961 0.607164L-122.116 0.606613L-122.497 799.761L-121.342 799.761L-120.961 0.607164Z" fill="#0EACEF"/>
<path d="M-90.2365 0.621814L-91.3915 0.621262L-91.7729 799.776L-90.6179 799.776L-90.2365 0.621814Z" fill="#0EACEF"/>
<path d="M-59.5238 0.636463L-60.6787 0.635912L-61.0601 799.79L-59.9052 799.791L-59.5238 0.636463Z" fill="#0EACEF"/>
<path d="M-28.7426 0.651231L-29.8976 0.65068L-30.279 799.805L-29.124 799.805L-28.7426 0.651231Z" fill="#0EACEF"/>
<path d="M1.97961 0.66588L0.824677 0.665329L0.443253 799.82L1.59822 799.82L1.97961 0.66588Z" fill="#0EACEF"/>
<path d="M32.7038 0.680411L31.5488 0.67986L31.1674 799.834L32.3224 799.835L32.7038 0.680411Z" fill="#0EACEF"/>
<path d="M63.4849 0.695179L62.3299 0.694628L61.9485 799.849L63.1035 799.849L63.4849 0.695179Z" fill="#0EACEF"/>
<path d="M94.2052 0.709828L93.0503 0.709277L92.6689 799.864L93.8238 799.864L94.2052 0.709828Z" fill="#0EACEF"/>
<path d="M124.929 0.724477L123.774 0.723926L123.393 799.878L124.548 799.879L124.929 0.724477Z" fill="#0EACEF"/>
<path d="M155.709 0.739245L154.554 0.738694L154.172 799.893L155.327 799.893L155.709 0.739245Z" fill="#0EACEF"/>
<path d="M186.433 0.753835L185.278 0.753284L184.896 799.908L186.051 799.908L186.433 0.753835Z" fill="#0EACEF"/>
<path d="M217.147 0.768485L215.992 0.767934L215.611 799.922L216.766 799.923L217.147 0.768485Z" fill="#0EACEF"/>
<path d="M247.927 0.783253L246.772 0.782702L246.39 799.937L247.545 799.938L247.927 0.783253Z" fill="#0EACEF"/>
<path d="M278.653 0.797843L277.498 0.797292L277.116 799.952L278.271 799.952L278.653 0.797843Z" fill="#0EACEF"/>
<path d="M309.373 0.812492L308.218 0.811941L307.837 799.966L308.992 799.967L309.373 0.812492Z" fill="#0EACEF"/>
<path d="M340.152 0.827201L338.997 0.82665L338.616 799.981L339.771 799.982L340.152 0.827201Z" fill="#0EACEF"/>
<path d="M370.876 0.84185L369.721 0.841299L369.34 799.996L370.495 799.996L370.876 0.84185Z" fill="#0EACEF"/>
<path d="M401.6 0.856499L400.446 0.855948L400.064 800.01L401.219 800.011L401.6 0.856499Z" fill="#0EACEF"/>
<path d="M432.38 0.871267L431.225 0.870716L430.843 800.025L431.998 800.026L432.38 0.871267Z" fill="#0EACEF"/>
<path d="M463.094 0.885917L461.939 0.885366L461.558 800.04L462.713 800.04L463.094 0.885917Z" fill="#0EACEF"/>
<path d="M493.874 0.900507L492.719 0.899956L492.337 800.054L493.492 800.055L493.874 0.900507Z" fill="#0EACEF"/>
<path d="M524.6 0.915215L523.445 0.914664L523.063 800.069L524.218 800.069L524.6 0.915215Z" fill="#0EACEF"/>
<path d="M555.322 0.929865L554.167 0.929314L553.786 800.084L554.94 800.084L555.322 0.929865Z" fill="#0EACEF"/>
<path d="M586.103 0.944514L584.948 0.943963L584.567 800.098L585.721 800.099L586.103 0.944514Z" fill="#0EACEF"/>
<path d="M615.557 0.381417L1416 0.76337L1415.62 801.072L615.175 800.69L615.557 0.381417ZM1414.84 1.91758L616.711 1.53673L616.33 799.536L1414.46 799.917L1414.84 1.91758Z" fill="#0EACEF"/>
<path d="M1415.41 31.4795L616.117 31.0981L616.116 32.2529L1415.4 32.6343L1415.41 31.4795Z" fill="#0EACEF"/>
<path d="M1415.39 62.2544L616.102 61.873L616.101 63.0277L1415.39 63.4091L1415.39 62.2544Z" fill="#0EACEF"/>
<path d="M1415.38 92.9708L616.088 92.5894L616.088 93.7442L1415.38 94.1256L1415.38 92.9708Z" fill="#0EACEF"/>
<path d="M1415.36 123.688L616.073 123.306L616.073 124.461L1415.36 124.843L1415.36 123.688Z" fill="#0EACEF"/>
<path d="M1415.35 154.462L616.058 154.081L616.057 155.235L1415.35 155.617L1415.35 154.462Z" fill="#0EACEF"/>
<path d="M1415.33 185.179L616.045 184.797L616.044 185.952L1415.33 186.333L1415.33 185.179Z" fill="#0EACEF"/>
<path d="M1415.32 215.896L616.03 215.514L616.029 216.669L1415.32 217.05L1415.32 215.896Z" fill="#0EACEF"/>
<path d="M1415.3 246.67L616.016 246.288L616.016 247.443L1415.3 247.825L1415.3 246.67Z" fill="#0EACEF"/>
<path d="M1415.29 277.387L616.001 277.006L616.001 278.16L1415.29 278.542L1415.29 277.387Z" fill="#0EACEF"/>
<path d="M1415.27 308.103L615.984 307.722L615.984 308.877L1415.27 309.258L1415.27 308.103Z" fill="#0EACEF"/>
<path d="M1415.26 338.878L615.969 338.497L615.968 339.652L1415.26 340.033L1415.26 338.878Z" fill="#0EACEF"/>
<path d="M1415.24 369.595L615.954 369.213L615.953 370.368L1415.24 370.749L1415.24 369.595Z" fill="#0EACEF"/>
<path d="M1415.23 400.311L615.94 399.93L615.94 401.084L1415.23 401.466L1415.23 400.311Z" fill="#0EACEF"/>
<path d="M1415.21 431.086L615.925 430.705L615.925 431.859L1415.21 432.241L1415.21 431.086Z" fill="#0EACEF"/>
<path d="M1415.2 461.802L615.91 461.421L615.909 462.576L1415.2 462.957L1415.2 461.802Z" fill="#0EACEF"/>
<path d="M1415.18 492.519L615.897 492.138L615.896 493.293L1415.18 493.674L1415.18 492.519Z" fill="#0EACEF"/>
<path d="M1415.17 523.294L615.882 522.912L615.881 524.067L1415.17 524.448L1415.17 523.294Z" fill="#0EACEF"/>
<path d="M1415.15 554.01L615.865 553.629L615.864 554.783L1415.15 555.165L1415.15 554.01Z" fill="#0EACEF"/>
<path d="M1415.14 584.785L615.851 584.404L615.851 585.558L1415.14 585.94L1415.14 584.785Z" fill="#0EACEF"/>
<path d="M1415.12 615.501L615.836 615.12L615.835 616.275L1415.12 616.656L1415.12 615.501Z" fill="#0EACEF"/>
<path d="M1415.11 646.218L615.823 645.837L615.822 646.992L1415.11 647.373L1415.11 646.218Z" fill="#0EACEF"/>
<path d="M1415.1 676.993L615.808 676.611L615.807 677.766L1415.1 678.148L1415.1 676.993Z" fill="#0EACEF"/>
<path d="M1415.08 707.709L615.792 707.328L615.792 708.482L1415.08 708.864L1415.08 707.709Z" fill="#0EACEF"/>
<path d="M1415.07 738.426L615.779 738.045L615.779 739.199L1415.07 739.581L1415.07 738.426Z" fill="#0EACEF"/>
<path d="M1415.05 769.2L615.764 768.819L615.763 769.974L1415.05 770.355L1415.05 769.2Z" fill="#0EACEF"/>
<path d="M647.436 0.973836L646.281 0.973285L645.9 800.128L647.055 800.128L647.436 0.973836Z" fill="#0EACEF"/>
<path d="M678.215 0.988545L677.06 0.987994L676.679 800.142L677.834 800.143L678.215 0.988545Z" fill="#0EACEF"/>
<path d="M708.938 1.00325L707.783 1.0027L707.401 800.157L708.556 800.158L708.938 1.00325Z" fill="#0EACEF"/>
<path d="M739.648 1.01784L738.493 1.01729L738.112 800.172L739.267 800.172L739.648 1.01784Z" fill="#0EACEF"/>
<path d="M770.43 1.03261L769.275 1.03206L768.893 800.186L770.048 800.187L770.43 1.03261Z" fill="#0EACEF"/>
<path d="M801.152 1.0472L799.997 1.04665L799.615 800.201L800.77 800.201L801.152 1.0472Z" fill="#0EACEF"/>
<path d="M831.876 1.06185L830.721 1.0613L830.34 800.216L831.495 800.216L831.876 1.06185Z" fill="#0EACEF"/>
<path d="M862.657 1.07662L861.502 1.07607L861.121 800.23L862.276 800.231L862.657 1.07662Z" fill="#0EACEF"/>
<path d="M893.381 1.09127L892.226 1.09072L891.845 800.245L893 800.245L893.381 1.09127Z" fill="#0EACEF"/>
<path d="M924.105 1.10592L922.95 1.10537L922.569 800.26L923.724 800.26L924.105 1.10592Z" fill="#0EACEF"/>
<path d="M954.885 1.12063L953.73 1.12008L953.348 800.274L954.503 800.275L954.885 1.12063Z" fill="#0EACEF"/>
<path d="M985.607 1.13522L984.452 1.13467L984.07 800.289L985.225 800.289L985.607 1.13522Z" fill="#0EACEF"/>
<path d="M1016.32 1.14987L1015.17 1.14931L1014.79 800.304L1015.94 800.304L1016.32 1.14987Z" fill="#0EACEF"/>
<path d="M1047.1 1.16463L1045.95 1.16408L1045.56 800.318L1046.72 800.319L1047.1 1.16463Z" fill="#0EACEF"/>
<path d="M1077.82 1.17928L1076.67 1.17873L1076.29 800.333L1077.44 800.334L1077.82 1.17928Z" fill="#0EACEF"/>
<path d="M1108.55 1.19387L1107.39 1.19332L1107.01 800.348L1108.17 800.348L1108.55 1.19387Z" fill="#0EACEF"/>
<path d="M1139.33 1.20864L1138.17 1.20809L1137.79 800.362L1138.95 800.363L1139.33 1.20864Z" fill="#0EACEF"/>
<path d="M1170.05 1.22329L1168.9 1.22274L1168.52 800.377L1169.67 800.378L1170.05 1.22329Z" fill="#0EACEF"/>
<path d="M1200.77 1.23794L1199.62 1.23739L1199.24 800.392L1200.39 800.392L1200.77 1.23794Z" fill="#0EACEF"/>
<path d="M1231.56 1.25265L1230.4 1.2521L1230.02 800.406L1231.17 800.407L1231.56 1.25265Z" fill="#0EACEF"/>
<path d="M1262.27 1.26724L1261.11 1.26669L1260.73 800.421L1261.89 800.422L1262.27 1.26724Z" fill="#0EACEF"/>
<path d="M1293.05 1.28189L1291.89 1.28134L1291.51 800.436L1292.67 800.436L1293.05 1.28189Z" fill="#0EACEF"/>
<path d="M1323.77 1.29666L1322.62 1.2961L1322.24 800.45L1323.39 800.451L1323.77 1.29666Z" fill="#0EACEF"/>
<path d="M1354.5 1.31131L1353.34 1.31075L1352.96 800.465L1354.12 800.466L1354.5 1.31131Z" fill="#0EACEF"/>
<path d="M1385.28 1.32595L1384.12 1.3254L1383.74 800.48L1384.9 800.48L1385.28 1.32595Z" fill="#0EACEF"/>
</g>
</g>
<defs>
<clipPath id="clip0_183_690">
<rect width="1232" height="647" fill="white"/>
</clipPath>
</defs>
</svg>
