<svg width="1600" height="647" viewBox="0 0 1600 647" fill="none" xmlns="http://www.w3.org/2000/svg">
<g clip-path="url(#clip0_1_199)">
<g opacity="0.4">
<path d="M0.381964 0L800.825 0.381953L800.443 800.691L0 800.309L0.381964 0ZM799.67 1.53616L1.53637 1.15531L1.15551 799.155L799.289 799.536L799.67 1.53616Z" fill="#0EACEF"/>
<path d="M800.231 31.0982L0.942867 30.7168L0.942315 31.8715L800.23 32.2529L800.231 31.0982Z" fill="#0EACEF"/>
<path d="M800.216 61.873L0.927682 61.4916L0.927131 62.6463L800.215 63.0277L800.216 61.873Z" fill="#0EACEF"/>
<path d="M800.203 92.5894L0.914395 92.208L0.913844 93.3627L800.202 93.7441L800.203 92.5894Z" fill="#0EACEF"/>
<path d="M800.185 123.306L0.897313 122.925L0.896762 124.08L800.185 124.461L800.185 123.306Z" fill="#0EACEF"/>
<path d="M800.17 154.081L0.882128 153.699L0.881577 154.854L800.17 155.236L800.17 154.081Z" fill="#0EACEF"/>
<path d="M800.157 184.797L0.868842 184.416L0.86829 185.571L800.156 185.952L800.157 184.797Z" fill="#0EACEF"/>
<path d="M800.142 215.514L0.853657 215.133L0.853106 216.288L800.141 216.669L800.142 215.514Z" fill="#0EACEF"/>
<path d="M800.129 246.288L0.84037 245.907L0.839819 247.062L800.128 247.443L800.129 246.288Z" fill="#0EACEF"/>
<path d="M800.113 277.005L0.825186 276.624L0.824635 277.779L800.113 278.16L800.113 277.005Z" fill="#0EACEF"/>
<path d="M800.098 307.722L0.810001 307.341L0.80945 308.495L800.098 308.877L800.098 307.722Z" fill="#0EACEF"/>
<path d="M800.083 338.497L0.794817 338.115L0.794266 339.27L800.082 339.652L800.083 338.497Z" fill="#0EACEF"/>
<path d="M800.068 369.213L0.779632 368.832L0.779081 369.987L800.067 370.368L800.068 369.213Z" fill="#0EACEF"/>
<path d="M800.055 399.93L0.766345 399.548L0.765794 400.703L800.054 401.084L800.055 399.93Z" fill="#0EACEF"/>
<path d="M800.039 430.705L0.751161 430.323L0.75061 431.478L800.039 431.859L800.039 430.705Z" fill="#0EACEF"/>
<path d="M800.024 461.421L0.735976 461.04L0.735425 462.194L800.024 462.576L800.024 461.421Z" fill="#0EACEF"/>
<path d="M800.011 492.138L0.72269 491.757L0.722139 492.911L800.01 493.293L800.011 492.138Z" fill="#0EACEF"/>
<path d="M799.996 522.912L0.707505 522.531L0.706954 523.686L799.995 524.067L799.996 522.912Z" fill="#0EACEF"/>
<path d="M799.98 553.629L0.692321 553.247L0.691769 554.402L799.98 554.784L799.98 553.629Z" fill="#0EACEF"/>
<path d="M799.967 584.404L0.679034 584.022L0.678483 585.177L799.967 585.558L799.967 584.404Z" fill="#0EACEF"/>
<path d="M799.952 615.12L0.663849 614.739L0.663298 615.893L799.951 616.275L799.952 615.12Z" fill="#0EACEF"/>
<path d="M799.937 645.837L0.648665 645.456L0.648114 646.61L799.936 646.992L799.937 645.837Z" fill="#0EACEF"/>
<path d="M799.922 676.611L0.63348 676.23L0.632929 677.385L799.921 677.766L799.922 676.611Z" fill="#0EACEF"/>
<path d="M799.905 707.328L0.616398 706.946L0.615846 708.101L799.904 708.482L799.905 707.328Z" fill="#0EACEF"/>
<path d="M799.891 738.045L0.603111 737.663L0.60256 738.818L799.891 739.2L799.891 738.045Z" fill="#0EACEF"/>
<path d="M799.876 768.819L0.587926 768.438L0.587375 769.592L799.875 769.974L799.876 768.819Z" fill="#0EACEF"/>
<path d="M32.2601 0.592456L31.1052 0.591904L30.7238 799.746L31.8787 799.747L32.2601 0.592456Z" fill="#0EACEF"/>
<path d="M63.0393 0.607164L61.8844 0.606613L61.503 799.761L62.6579 799.761L63.0393 0.607164Z" fill="#0EACEF"/>
<path d="M93.7635 0.621814L92.6085 0.621262L92.2271 799.776L93.3821 799.776L93.7635 0.621814Z" fill="#0EACEF"/>
<path d="M124.476 0.636463L123.321 0.635912L122.94 799.79L124.095 799.791L124.476 0.636463Z" fill="#0EACEF"/>
<path d="M155.257 0.651231L154.102 0.65068L153.721 799.805L154.876 799.805L155.257 0.651231Z" fill="#0EACEF"/>
<path d="M185.98 0.66588L184.825 0.665329L184.443 799.82L185.598 799.82L185.98 0.66588Z" fill="#0EACEF"/>
<path d="M216.704 0.680411L215.549 0.67986L215.167 799.834L216.322 799.835L216.704 0.680411Z" fill="#0EACEF"/>
<path d="M247.485 0.695179L246.33 0.694628L245.949 799.849L247.103 799.849L247.485 0.695179Z" fill="#0EACEF"/>
<path d="M278.205 0.709828L277.05 0.709277L276.669 799.864L277.824 799.864L278.205 0.709828Z" fill="#0EACEF"/>
<path d="M308.929 0.724477L307.774 0.723926L307.393 799.878L308.548 799.879L308.929 0.724477Z" fill="#0EACEF"/>
<path d="M339.709 0.739245L338.554 0.738694L338.172 799.893L339.327 799.893L339.709 0.739245Z" fill="#0EACEF"/>
<path d="M370.433 0.753835L369.278 0.753284L368.896 799.908L370.051 799.908L370.433 0.753835Z" fill="#0EACEF"/>
<path d="M401.147 0.768485L399.992 0.767934L399.611 799.922L400.766 799.923L401.147 0.768485Z" fill="#0EACEF"/>
<path d="M431.927 0.783253L430.772 0.782702L430.39 799.937L431.545 799.938L431.927 0.783253Z" fill="#0EACEF"/>
<path d="M462.653 0.797843L461.498 0.797292L461.116 799.952L462.271 799.952L462.653 0.797843Z" fill="#0EACEF"/>
<path d="M493.373 0.812492L492.218 0.811941L491.837 799.966L492.992 799.967L493.373 0.812492Z" fill="#0EACEF"/>
<path d="M524.152 0.827201L522.997 0.82665L522.616 799.981L523.771 799.982L524.152 0.827201Z" fill="#0EACEF"/>
<path d="M554.876 0.84185L553.721 0.841299L553.34 799.996L554.495 799.996L554.876 0.84185Z" fill="#0EACEF"/>
<path d="M585.6 0.856499L584.446 0.855948L584.064 800.01L585.219 800.011L585.6 0.856499Z" fill="#0EACEF"/>
<path d="M616.38 0.871267L615.225 0.870716L614.843 800.025L615.998 800.026L616.38 0.871267Z" fill="#0EACEF"/>
<path d="M647.094 0.885917L645.939 0.885366L645.558 800.04L646.713 800.04L647.094 0.885917Z" fill="#0EACEF"/>
<path d="M677.874 0.900507L676.719 0.899956L676.337 800.054L677.492 800.055L677.874 0.900507Z" fill="#0EACEF"/>
<path d="M708.6 0.915215L707.445 0.914664L707.063 800.069L708.218 800.069L708.6 0.915215Z" fill="#0EACEF"/>
<path d="M739.322 0.929865L738.167 0.929314L737.786 800.084L738.94 800.084L739.322 0.929865Z" fill="#0EACEF"/>
<path d="M770.103 0.944514L768.948 0.943963L768.567 800.098L769.721 800.099L770.103 0.944514Z" fill="#0EACEF"/>
<path d="M799.557 0.381417L1600 0.76337L1599.62 801.072L799.175 800.69L799.557 0.381417ZM1598.84 1.91758L800.711 1.53673L800.33 799.536L1598.46 799.917L1598.84 1.91758Z" fill="#0EACEF"/>
<path d="M1599.41 31.4795L800.117 31.0981L800.116 32.2529L1599.4 32.6343L1599.41 31.4795Z" fill="#0EACEF"/>
<path d="M1599.39 62.2544L800.102 61.873L800.101 63.0277L1599.39 63.4091L1599.39 62.2544Z" fill="#0EACEF"/>
<path d="M1599.38 92.9708L800.088 92.5894L800.088 93.7442L1599.38 94.1256L1599.38 92.9708Z" fill="#0EACEF"/>
<path d="M1599.36 123.688L800.073 123.306L800.073 124.461L1599.36 124.843L1599.36 123.688Z" fill="#0EACEF"/>
<path d="M1599.35 154.462L800.058 154.081L800.057 155.235L1599.35 155.617L1599.35 154.462Z" fill="#0EACEF"/>
<path d="M1599.33 185.179L800.045 184.797L800.044 185.952L1599.33 186.333L1599.33 185.179Z" fill="#0EACEF"/>
<path d="M1599.32 215.896L800.03 215.514L800.029 216.669L1599.32 217.05L1599.32 215.896Z" fill="#0EACEF"/>
<path d="M1599.3 246.67L800.016 246.288L800.016 247.443L1599.3 247.825L1599.3 246.67Z" fill="#0EACEF"/>
<path d="M1599.29 277.387L800.001 277.006L800.001 278.16L1599.29 278.542L1599.29 277.387Z" fill="#0EACEF"/>
<path d="M1599.27 308.103L799.984 307.722L799.984 308.877L1599.27 309.258L1599.27 308.103Z" fill="#0EACEF"/>
<path d="M1599.26 338.878L799.969 338.497L799.968 339.652L1599.26 340.033L1599.26 338.878Z" fill="#0EACEF"/>
<path d="M1599.24 369.595L799.954 369.213L799.953 370.368L1599.24 370.749L1599.24 369.595Z" fill="#0EACEF"/>
<path d="M1599.23 400.311L799.94 399.93L799.94 401.084L1599.23 401.466L1599.23 400.311Z" fill="#0EACEF"/>
<path d="M1599.21 431.086L799.925 430.705L799.925 431.859L1599.21 432.241L1599.21 431.086Z" fill="#0EACEF"/>
<path d="M1599.2 461.802L799.91 461.421L799.909 462.576L1599.2 462.957L1599.2 461.802Z" fill="#0EACEF"/>
<path d="M1599.18 492.519L799.897 492.138L799.896 493.293L1599.18 493.674L1599.18 492.519Z" fill="#0EACEF"/>
<path d="M1599.17 523.294L799.882 522.912L799.881 524.067L1599.17 524.448L1599.17 523.294Z" fill="#0EACEF"/>
<path d="M1599.15 554.01L799.865 553.629L799.864 554.783L1599.15 555.165L1599.15 554.01Z" fill="#0EACEF"/>
<path d="M1599.14 584.785L799.851 584.404L799.851 585.558L1599.14 585.94L1599.14 584.785Z" fill="#0EACEF"/>
<path d="M1599.12 615.501L799.836 615.12L799.835 616.275L1599.12 616.656L1599.12 615.501Z" fill="#0EACEF"/>
<path d="M1599.11 646.218L799.823 645.837L799.822 646.992L1599.11 647.373L1599.11 646.218Z" fill="#0EACEF"/>
<path d="M1599.1 676.993L799.808 676.611L799.807 677.766L1599.1 678.148L1599.1 676.993Z" fill="#0EACEF"/>
<path d="M1599.08 707.709L799.792 707.328L799.792 708.482L1599.08 708.864L1599.08 707.709Z" fill="#0EACEF"/>
<path d="M1599.07 738.426L799.779 738.045L799.779 739.199L1599.07 739.581L1599.07 738.426Z" fill="#0EACEF"/>
<path d="M1599.05 769.2L799.764 768.819L799.763 769.974L1599.05 770.355L1599.05 769.2Z" fill="#0EACEF"/>
<path d="M831.436 0.973836L830.281 0.973285L829.9 800.128L831.055 800.128L831.436 0.973836Z" fill="#0EACEF"/>
<path d="M862.215 0.988545L861.06 0.987994L860.679 800.142L861.834 800.143L862.215 0.988545Z" fill="#0EACEF"/>
<path d="M892.938 1.00325L891.783 1.0027L891.401 800.157L892.556 800.158L892.938 1.00325Z" fill="#0EACEF"/>
<path d="M923.648 1.01784L922.493 1.01729L922.112 800.172L923.267 800.172L923.648 1.01784Z" fill="#0EACEF"/>
<path d="M954.43 1.03261L953.275 1.03206L952.893 800.186L954.048 800.187L954.43 1.03261Z" fill="#0EACEF"/>
<path d="M985.152 1.0472L983.997 1.04665L983.615 800.201L984.77 800.201L985.152 1.0472Z" fill="#0EACEF"/>
<path d="M1015.88 1.06185L1014.72 1.0613L1014.34 800.216L1015.49 800.216L1015.88 1.06185Z" fill="#0EACEF"/>
<path d="M1046.66 1.07662L1045.5 1.07607L1045.12 800.23L1046.28 800.231L1046.66 1.07662Z" fill="#0EACEF"/>
<path d="M1077.38 1.09127L1076.23 1.09072L1075.84 800.245L1077 800.245L1077.38 1.09127Z" fill="#0EACEF"/>
<path d="M1108.11 1.10592L1106.95 1.10537L1106.57 800.26L1107.72 800.26L1108.11 1.10592Z" fill="#0EACEF"/>
<path d="M1138.88 1.12063L1137.73 1.12008L1137.35 800.274L1138.5 800.275L1138.88 1.12063Z" fill="#0EACEF"/>
<path d="M1169.61 1.13522L1168.45 1.13467L1168.07 800.289L1169.23 800.289L1169.61 1.13522Z" fill="#0EACEF"/>
<path d="M1200.32 1.14987L1199.17 1.14931L1198.79 800.304L1199.94 800.304L1200.32 1.14987Z" fill="#0EACEF"/>
<path d="M1231.1 1.16463L1229.95 1.16408L1229.56 800.318L1230.72 800.319L1231.1 1.16463Z" fill="#0EACEF"/>
<path d="M1261.82 1.17928L1260.67 1.17873L1260.29 800.333L1261.44 800.334L1261.82 1.17928Z" fill="#0EACEF"/>
<path d="M1292.55 1.19387L1291.39 1.19332L1291.01 800.348L1292.17 800.348L1292.55 1.19387Z" fill="#0EACEF"/>
<path d="M1323.33 1.20864L1322.17 1.20809L1321.79 800.362L1322.95 800.363L1323.33 1.20864Z" fill="#0EACEF"/>
<path d="M1354.05 1.22329L1352.9 1.22274L1352.52 800.377L1353.67 800.378L1354.05 1.22329Z" fill="#0EACEF"/>
<path d="M1384.77 1.23794L1383.62 1.23739L1383.24 800.392L1384.39 800.392L1384.77 1.23794Z" fill="#0EACEF"/>
<path d="M1415.56 1.25265L1414.4 1.2521L1414.02 800.406L1415.17 800.407L1415.56 1.25265Z" fill="#0EACEF"/>
<path d="M1446.27 1.26724L1445.11 1.26669L1444.73 800.421L1445.89 800.422L1446.27 1.26724Z" fill="#0EACEF"/>
<path d="M1477.05 1.28189L1475.89 1.28134L1475.51 800.436L1476.67 800.436L1477.05 1.28189Z" fill="#0EACEF"/>
<path d="M1507.77 1.29666L1506.62 1.2961L1506.24 800.45L1507.39 800.451L1507.77 1.29666Z" fill="#0EACEF"/>
<path d="M1538.5 1.31131L1537.34 1.31075L1536.96 800.465L1538.12 800.466L1538.5 1.31131Z" fill="#0EACEF"/>
<path d="M1569.28 1.32595L1568.12 1.3254L1567.74 800.48L1568.9 800.48L1569.28 1.32595Z" fill="#0EACEF"/>
</g>
</g>
<defs>
<clipPath id="clip0_1_199">
<rect width="1600" height="647" fill="white"/>
</clipPath>
</defs>
</svg>
