<svg width="924" height="647" viewBox="0 0 924 647" fill="none" xmlns="http://www.w3.org/2000/svg">
<g clip-path="url(#clip0_183_861)">
<g opacity="0.4">
<path d="M-337.618 0L462.825 0.381953L462.443 800.691L-338 800.309L-337.618 0ZM461.67 1.53616L-336.464 1.15531L-336.844 799.155L461.289 799.536L461.67 1.53616Z" fill="#0EACEF"/>
<path d="M462.231 31.0982L-337.057 30.7168L-337.058 31.8715L462.23 32.2529L462.231 31.0982Z" fill="#0EACEF"/>
<path d="M462.216 61.873L-337.072 61.4916L-337.073 62.6463L462.215 63.0277L462.216 61.873Z" fill="#0EACEF"/>
<path d="M462.203 92.5894L-337.086 92.208L-337.086 93.3627L462.202 93.7441L462.203 92.5894Z" fill="#0EACEF"/>
<path d="M462.185 123.306L-337.103 122.925L-337.103 124.08L462.185 124.461L462.185 123.306Z" fill="#0EACEF"/>
<path d="M462.17 154.081L-337.118 153.699L-337.118 154.854L462.17 155.236L462.17 154.081Z" fill="#0EACEF"/>
<path d="M462.157 184.797L-337.131 184.416L-337.132 185.571L462.156 185.952L462.157 184.797Z" fill="#0EACEF"/>
<path d="M462.142 215.514L-337.146 215.133L-337.147 216.288L462.141 216.669L462.142 215.514Z" fill="#0EACEF"/>
<path d="M462.129 246.288L-337.16 245.907L-337.16 247.062L462.128 247.443L462.129 246.288Z" fill="#0EACEF"/>
<path d="M462.113 277.005L-337.175 276.624L-337.175 277.779L462.113 278.16L462.113 277.005Z" fill="#0EACEF"/>
<path d="M462.098 307.722L-337.19 307.341L-337.191 308.495L462.098 308.877L462.098 307.722Z" fill="#0EACEF"/>
<path d="M462.083 338.497L-337.205 338.115L-337.206 339.27L462.082 339.652L462.083 338.497Z" fill="#0EACEF"/>
<path d="M462.068 369.213L-337.22 368.832L-337.221 369.987L462.067 370.368L462.068 369.213Z" fill="#0EACEF"/>
<path d="M462.055 399.93L-337.234 399.548L-337.234 400.703L462.054 401.084L462.055 399.93Z" fill="#0EACEF"/>
<path d="M462.039 430.705L-337.249 430.323L-337.249 431.478L462.039 431.859L462.039 430.705Z" fill="#0EACEF"/>
<path d="M462.024 461.421L-337.264 461.04L-337.265 462.194L462.024 462.576L462.024 461.421Z" fill="#0EACEF"/>
<path d="M462.011 492.138L-337.277 491.757L-337.278 492.911L462.01 493.293L462.011 492.138Z" fill="#0EACEF"/>
<path d="M461.996 522.912L-337.292 522.531L-337.293 523.686L461.995 524.067L461.996 522.912Z" fill="#0EACEF"/>
<path d="M461.98 553.629L-337.308 553.247L-337.308 554.402L461.98 554.784L461.98 553.629Z" fill="#0EACEF"/>
<path d="M461.967 584.404L-337.321 584.022L-337.322 585.177L461.967 585.558L461.967 584.404Z" fill="#0EACEF"/>
<path d="M461.952 615.12L-337.336 614.739L-337.337 615.893L461.951 616.275L461.952 615.12Z" fill="#0EACEF"/>
<path d="M461.937 645.837L-337.351 645.456L-337.352 646.61L461.936 646.992L461.937 645.837Z" fill="#0EACEF"/>
<path d="M461.922 676.611L-337.367 676.23L-337.367 677.385L461.921 677.766L461.922 676.611Z" fill="#0EACEF"/>
<path d="M461.905 707.328L-337.384 706.946L-337.384 708.101L461.904 708.482L461.905 707.328Z" fill="#0EACEF"/>
<path d="M461.891 738.045L-337.397 737.663L-337.397 738.818L461.891 739.2L461.891 738.045Z" fill="#0EACEF"/>
<path d="M461.876 768.819L-337.412 768.438L-337.413 769.592L461.875 769.974L461.876 768.819Z" fill="#0EACEF"/>
<path d="M-305.74 0.592456L-306.895 0.591904L-307.276 799.746L-306.121 799.747L-305.74 0.592456Z" fill="#0EACEF"/>
<path d="M-274.961 0.607164L-276.116 0.606613L-276.497 799.761L-275.342 799.761L-274.961 0.607164Z" fill="#0EACEF"/>
<path d="M-244.237 0.621814L-245.391 0.621262L-245.773 799.776L-244.618 799.776L-244.237 0.621814Z" fill="#0EACEF"/>
<path d="M-213.524 0.636463L-214.679 0.635912L-215.06 799.79L-213.905 799.791L-213.524 0.636463Z" fill="#0EACEF"/>
<path d="M-182.743 0.651231L-183.898 0.65068L-184.279 799.805L-183.124 799.805L-182.743 0.651231Z" fill="#0EACEF"/>
<path d="M-152.02 0.66588L-153.175 0.665329L-153.557 799.82L-152.402 799.82L-152.02 0.66588Z" fill="#0EACEF"/>
<path d="M-121.296 0.680411L-122.451 0.67986L-122.833 799.834L-121.678 799.835L-121.296 0.680411Z" fill="#0EACEF"/>
<path d="M-90.5151 0.695179L-91.6701 0.694628L-92.0515 799.849L-90.8965 799.849L-90.5151 0.695179Z" fill="#0EACEF"/>
<path d="M-59.7948 0.709828L-60.9497 0.709277L-61.3311 799.864L-60.1762 799.864L-59.7948 0.709828Z" fill="#0EACEF"/>
<path d="M-29.0706 0.724477L-30.2256 0.723926L-30.607 799.878L-29.452 799.879L-29.0706 0.724477Z" fill="#0EACEF"/>
<path d="M1.70859 0.739245L0.553619 0.738694L0.172211 799.893L1.32718 799.893L1.70859 0.739245Z" fill="#0EACEF"/>
<path d="M32.4327 0.753835L31.2778 0.753284L30.8964 799.908L32.0513 799.908L32.4327 0.753835Z" fill="#0EACEF"/>
<path d="M63.1475 0.768485L61.9925 0.767934L61.6111 799.922L62.766 799.923L63.1475 0.768485Z" fill="#0EACEF"/>
<path d="M93.9267 0.783253L92.7716 0.782702L92.3903 799.937L93.5453 799.938L93.9267 0.783253Z" fill="#0EACEF"/>
<path d="M124.653 0.797843L123.498 0.797292L123.116 799.952L124.271 799.952L124.653 0.797843Z" fill="#0EACEF"/>
<path d="M155.373 0.812492L154.218 0.811941L153.837 799.966L154.992 799.967L155.373 0.812492Z" fill="#0EACEF"/>
<path d="M186.152 0.827201L184.997 0.82665L184.616 799.981L185.771 799.982L186.152 0.827201Z" fill="#0EACEF"/>
<path d="M216.876 0.84185L215.721 0.841299L215.34 799.996L216.495 799.996L216.876 0.84185Z" fill="#0EACEF"/>
<path d="M247.6 0.856499L246.446 0.855948L246.064 800.01L247.219 800.011L247.6 0.856499Z" fill="#0EACEF"/>
<path d="M278.38 0.871267L277.225 0.870716L276.843 800.025L277.998 800.026L278.38 0.871267Z" fill="#0EACEF"/>
<path d="M309.094 0.885917L307.939 0.885366L307.558 800.04L308.713 800.04L309.094 0.885917Z" fill="#0EACEF"/>
<path d="M339.874 0.900507L338.719 0.899956L338.337 800.054L339.492 800.055L339.874 0.900507Z" fill="#0EACEF"/>
<path d="M370.6 0.915215L369.445 0.914664L369.063 800.069L370.218 800.069L370.6 0.915215Z" fill="#0EACEF"/>
<path d="M401.322 0.929865L400.167 0.929314L399.786 800.084L400.94 800.084L401.322 0.929865Z" fill="#0EACEF"/>
<path d="M432.103 0.944514L430.948 0.943963L430.567 800.098L431.721 800.099L432.103 0.944514Z" fill="#0EACEF"/>
<path d="M461.557 0.381417L1262 0.76337L1261.62 801.072L461.175 800.69L461.557 0.381417ZM1260.84 1.91758L462.711 1.53673L462.33 799.536L1260.46 799.917L1260.84 1.91758Z" fill="#0EACEF"/>
<path d="M1261.41 31.4795L462.117 31.0981L462.116 32.2529L1261.4 32.6343L1261.41 31.4795Z" fill="#0EACEF"/>
<path d="M1261.39 62.2544L462.102 61.873L462.101 63.0277L1261.39 63.4091L1261.39 62.2544Z" fill="#0EACEF"/>
<path d="M1261.38 92.9708L462.088 92.5894L462.088 93.7442L1261.38 94.1256L1261.38 92.9708Z" fill="#0EACEF"/>
<path d="M1261.36 123.688L462.073 123.306L462.073 124.461L1261.36 124.843L1261.36 123.688Z" fill="#0EACEF"/>
<path d="M1261.35 154.462L462.058 154.081L462.057 155.235L1261.35 155.617L1261.35 154.462Z" fill="#0EACEF"/>
<path d="M1261.33 185.179L462.045 184.797L462.044 185.952L1261.33 186.333L1261.33 185.179Z" fill="#0EACEF"/>
<path d="M1261.32 215.896L462.03 215.514L462.029 216.669L1261.32 217.05L1261.32 215.896Z" fill="#0EACEF"/>
<path d="M1261.3 246.67L462.016 246.288L462.016 247.443L1261.3 247.825L1261.3 246.67Z" fill="#0EACEF"/>
<path d="M1261.29 277.387L462.001 277.006L462.001 278.16L1261.29 278.542L1261.29 277.387Z" fill="#0EACEF"/>
<path d="M1261.27 308.103L461.984 307.722L461.984 308.877L1261.27 309.258L1261.27 308.103Z" fill="#0EACEF"/>
<path d="M1261.26 338.878L461.969 338.497L461.968 339.652L1261.26 340.033L1261.26 338.878Z" fill="#0EACEF"/>
<path d="M1261.24 369.595L461.954 369.213L461.953 370.368L1261.24 370.749L1261.24 369.595Z" fill="#0EACEF"/>
<path d="M1261.23 400.311L461.94 399.93L461.94 401.084L1261.23 401.466L1261.23 400.311Z" fill="#0EACEF"/>
<path d="M1261.21 431.086L461.925 430.705L461.925 431.859L1261.21 432.241L1261.21 431.086Z" fill="#0EACEF"/>
<path d="M1261.2 461.802L461.91 461.421L461.909 462.576L1261.2 462.957L1261.2 461.802Z" fill="#0EACEF"/>
<path d="M1261.18 492.519L461.897 492.138L461.896 493.293L1261.18 493.674L1261.18 492.519Z" fill="#0EACEF"/>
<path d="M1261.17 523.294L461.882 522.912L461.881 524.067L1261.17 524.448L1261.17 523.294Z" fill="#0EACEF"/>
<path d="M1261.15 554.01L461.865 553.629L461.864 554.783L1261.15 555.165L1261.15 554.01Z" fill="#0EACEF"/>
<path d="M1261.14 584.785L461.851 584.404L461.851 585.558L1261.14 585.94L1261.14 584.785Z" fill="#0EACEF"/>
<path d="M1261.12 615.501L461.836 615.12L461.835 616.275L1261.12 616.656L1261.12 615.501Z" fill="#0EACEF"/>
<path d="M1261.11 646.218L461.823 645.837L461.822 646.992L1261.11 647.373L1261.11 646.218Z" fill="#0EACEF"/>
<path d="M1261.1 676.993L461.808 676.611L461.807 677.766L1261.1 678.148L1261.1 676.993Z" fill="#0EACEF"/>
<path d="M1261.08 707.709L461.792 707.328L461.792 708.482L1261.08 708.864L1261.08 707.709Z" fill="#0EACEF"/>
<path d="M1261.07 738.426L461.779 738.045L461.779 739.199L1261.07 739.581L1261.07 738.426Z" fill="#0EACEF"/>
<path d="M1261.05 769.2L461.764 768.819L461.763 769.974L1261.05 770.355L1261.05 769.2Z" fill="#0EACEF"/>
<path d="M493.436 0.973836L492.281 0.973285L491.9 800.128L493.055 800.128L493.436 0.973836Z" fill="#0EACEF"/>
<path d="M524.215 0.988545L523.06 0.987994L522.679 800.142L523.834 800.143L524.215 0.988545Z" fill="#0EACEF"/>
<path d="M554.938 1.00325L553.783 1.0027L553.401 800.157L554.556 800.158L554.938 1.00325Z" fill="#0EACEF"/>
<path d="M585.648 1.01784L584.493 1.01729L584.112 800.172L585.267 800.172L585.648 1.01784Z" fill="#0EACEF"/>
<path d="M616.43 1.03261L615.275 1.03206L614.893 800.186L616.048 800.187L616.43 1.03261Z" fill="#0EACEF"/>
<path d="M647.152 1.0472L645.997 1.04665L645.615 800.201L646.77 800.201L647.152 1.0472Z" fill="#0EACEF"/>
<path d="M677.876 1.06185L676.721 1.0613L676.34 800.216L677.495 800.216L677.876 1.06185Z" fill="#0EACEF"/>
<path d="M708.657 1.07662L707.502 1.07607L707.121 800.23L708.276 800.231L708.657 1.07662Z" fill="#0EACEF"/>
<path d="M739.381 1.09127L738.226 1.09072L737.845 800.245L739 800.245L739.381 1.09127Z" fill="#0EACEF"/>
<path d="M770.105 1.10592L768.95 1.10537L768.569 800.26L769.724 800.26L770.105 1.10592Z" fill="#0EACEF"/>
<path d="M800.885 1.12063L799.73 1.12008L799.348 800.274L800.503 800.275L800.885 1.12063Z" fill="#0EACEF"/>
<path d="M831.607 1.13522L830.452 1.13467L830.07 800.289L831.225 800.289L831.607 1.13522Z" fill="#0EACEF"/>
<path d="M862.321 1.14987L861.167 1.14931L860.785 800.304L861.94 800.304L862.321 1.14987Z" fill="#0EACEF"/>
<path d="M893.101 1.16463L891.946 1.16408L891.564 800.318L892.719 800.319L893.101 1.16463Z" fill="#0EACEF"/>
<path d="M923.825 1.17928L922.67 1.17873L922.288 800.333L923.443 800.334L923.825 1.17928Z" fill="#0EACEF"/>
<path d="M954.549 1.19387L953.394 1.19332L953.013 800.348L954.168 800.348L954.549 1.19387Z" fill="#0EACEF"/>
<path d="M985.328 1.20864L984.173 1.20809L983.792 800.362L984.947 800.363L985.328 1.20864Z" fill="#0EACEF"/>
<path d="M1016.05 1.22329L1014.9 1.22274L1014.52 800.377L1015.67 800.378L1016.05 1.22329Z" fill="#0EACEF"/>
<path d="M1046.77 1.23794L1045.62 1.23739L1045.24 800.392L1046.39 800.392L1046.77 1.23794Z" fill="#0EACEF"/>
<path d="M1077.56 1.25265L1076.4 1.2521L1076.02 800.406L1077.17 800.407L1077.56 1.25265Z" fill="#0EACEF"/>
<path d="M1108.27 1.26724L1107.11 1.26669L1106.73 800.421L1107.89 800.422L1108.27 1.26724Z" fill="#0EACEF"/>
<path d="M1139.05 1.28189L1137.89 1.28134L1137.51 800.436L1138.67 800.436L1139.05 1.28189Z" fill="#0EACEF"/>
<path d="M1169.77 1.29666L1168.62 1.2961L1168.24 800.45L1169.39 800.451L1169.77 1.29666Z" fill="#0EACEF"/>
<path d="M1200.5 1.31131L1199.34 1.31075L1198.96 800.465L1200.12 800.466L1200.5 1.31131Z" fill="#0EACEF"/>
<path d="M1231.28 1.32595L1230.12 1.3254L1229.74 800.48L1230.9 800.48L1231.28 1.32595Z" fill="#0EACEF"/>
</g>
</g>
<defs>
<clipPath id="clip0_183_861">
<rect width="924" height="647" fill="white"/>
</clipPath>
</defs>
</svg>
