<svg width="179" height="29" viewBox="0 0 179 29" fill="none" xmlns="http://www.w3.org/2000/svg">
<path fill-rule="evenodd" clip-rule="evenodd" d="M51.6292 0L44.6718 1.04233e-06L31.4987 28.4194H37.6563L48.2928 5.68389L51.6292 5.68389L51.6292 0Z" fill="white"/>
<path fill-rule="evenodd" clip-rule="evenodd" d="M0 8.52583C0 3.81715 3.81715 0 8.52583 0H27.4721V5.68389H8.52583C6.95627 5.68389 5.68389 6.95627 5.68389 8.52583C5.68389 10.0954 6.95627 11.3678 8.52583 11.3678H18.544V17.0517H8.52583C3.81715 17.0517 0 13.2345 0 8.52583Z" fill="white"/>
<path fill-rule="evenodd" clip-rule="evenodd" d="M20.3673 17.0517H10.3491V11.3678H20.3673C25.076 11.3678 28.8931 15.1849 28.8931 19.8936C28.8931 24.6023 25.076 28.4194 20.3673 28.4194H1.42097V22.7356H20.3673C21.9368 22.7356 23.2092 21.4632 23.2092 19.8936C23.2092 18.324 21.9368 17.0517 20.3673 17.0517Z" fill="white"/>
<rect x="51.6287" y="5.68396" width="5.68389" height="5.68389" fill="white"/>
<rect x="57.3119" y="17.0518" width="5.68389" height="5.68389" fill="white"/>
<rect x="68.6802" y="22.7355" width="5.68389" height="5.68389" fill="white"/>
<rect x="80.0482" width="5.68389" height="5.68389" fill="white"/>
<rect x="80.0482" y="11.3676" width="5.68389" height="5.68389" fill="white"/>
<rect x="80.0482" y="22.7355" width="5.68389" height="5.68389" fill="white"/>
<rect x="74.3638" width="5.68389" height="5.68389" fill="white"/>
<rect x="74.3638" y="11.3676" width="5.68389" height="5.68389" fill="white"/>
<rect x="74.3638" y="22.7355" width="5.68389" height="5.68389" fill="white"/>
<rect x="85.7321" width="5.68389" height="5.68389" fill="white"/>
<rect x="85.7321" y="11.3676" width="5.68389" height="5.68389" fill="white"/>
<rect x="85.7321" y="22.7355" width="5.68389" height="5.68389" fill="white"/>
<rect x="91.4157" width="5.68389" height="5.68389" fill="white"/>
<rect x="91.4157" y="17.0518" width="5.68389" height="5.68389" fill="white"/>
<rect x="51.6287" y="11.3676" width="5.68389" height="5.68389" fill="white"/>
<rect x="57.3119" y="22.7355" width="5.68389" height="5.68389" fill="white"/>
<rect x="68.6802" y="5.68396" width="5.68389" height="5.68389" fill="white"/>
<rect x="45.9447" y="22.7355" width="5.68389" height="5.68389" fill="white"/>
<path d="M109.092 0H112.579L114.988 6.81358H115.017L117.441 0H120.913V10.4416H118.608V2.43342H118.579L115.83 10.4416H114.072L111.427 2.43342H111.397V10.4416H109.092V0Z" fill="white"/>
<path d="M123.874 0H130.981V2.12371H126.179V4.07045H130.715V6.19416H126.179V8.31788H131.247V10.4416H123.874V0Z" fill="white"/>
<path d="M135.856 2.03522H132.871V0H141.146V2.03522H138.161V10.4416H135.856V2.03522Z" fill="white"/>
<path d="M145.142 0H147.048L151.599 10.4416H148.999L148.097 8.22939H144.034L143.162 10.4416H140.62L145.142 0ZM146.028 3.03809L144.758 6.28265H147.314L146.028 3.03809Z" fill="white"/>
<path d="M118.564 27.2603C117.884 27.6143 117.175 27.8699 116.436 28.0272C115.697 28.1845 114.944 28.2632 114.175 28.2632C113.358 28.2632 112.604 28.1354 111.914 27.8797C111.225 27.6241 110.629 27.2603 110.126 26.7884C109.624 26.3066 109.23 25.7265 108.944 25.0481C108.668 24.3697 108.53 23.6127 108.53 22.7769C108.53 21.9412 108.668 21.1841 108.944 20.5057C109.23 19.8273 109.624 19.2522 110.126 18.7802C110.629 18.2985 111.225 17.9298 111.914 17.6741C112.604 17.4185 113.358 17.2907 114.175 17.2907C115.013 17.2907 115.781 17.3939 116.48 17.6004C117.19 17.797 117.81 18.1411 118.342 18.6327L116.717 20.4025C116.402 20.078 116.047 19.8322 115.653 19.6651C115.259 19.498 114.766 19.4144 114.175 19.4144C113.683 19.4144 113.234 19.498 112.83 19.6651C112.436 19.8322 112.097 20.0682 111.811 20.373C111.525 20.668 111.304 21.0219 111.146 21.4349C110.998 21.8478 110.924 22.2952 110.924 22.7769C110.924 23.2685 110.998 23.7208 111.146 24.1337C111.304 24.5369 111.525 24.8908 111.811 25.1956C112.097 25.4906 112.436 25.7216 112.83 25.8888C113.234 26.0559 113.683 26.1395 114.175 26.1395C114.678 26.1395 115.111 26.0854 115.476 25.9772C115.84 25.8593 116.131 25.7413 116.347 25.6233V23.9273H114.471V21.8036H118.564V27.2603Z" fill="white"/>
<path d="M124.775 17.5561H126.681L131.232 27.9977H128.632L127.73 25.7855H123.667L122.795 27.9977H120.253L124.775 17.5561ZM125.661 20.5942L124.391 23.8388H126.947L125.661 20.5942Z" fill="white"/>
<path d="M133.112 17.5561H135.417V25.874H139.688V27.9977H133.112V17.5561Z" fill="white"/>
<path d="M141.788 17.5561H144.093V25.874H148.363V27.9977H141.788V17.5561Z" fill="white"/>
<path d="M150.463 17.5561H157.571V19.6798H152.768V21.6266H157.305V23.7503H152.768V25.874H157.837V27.9977H150.463V17.5561Z" fill="white"/>
<path d="M160.421 17.5561H164.47C165.002 17.5561 165.504 17.6102 165.977 17.7184C166.46 17.8167 166.878 17.9887 167.233 18.2345C167.597 18.4705 167.883 18.795 168.09 19.2079C168.307 19.611 168.415 20.1174 168.415 20.727C168.415 21.4644 168.223 22.0936 167.839 22.6147C167.455 23.126 166.893 23.4504 166.154 23.5881L168.814 27.9977H166.051L163.864 23.824H162.726V27.9977H160.421V17.5561ZM162.726 21.8773H164.085C164.292 21.8773 164.509 21.8724 164.736 21.8626C164.972 21.8429 165.184 21.7986 165.371 21.7298C165.558 21.6512 165.711 21.5332 165.829 21.3759C165.957 21.2186 166.021 20.9973 166.021 20.7122C166.021 20.4467 165.967 20.2354 165.859 20.078C165.75 19.9207 165.612 19.8027 165.445 19.7241C165.277 19.6356 165.085 19.5766 164.869 19.5471C164.652 19.5176 164.44 19.5029 164.233 19.5029H162.726V21.8773Z" fill="white"/>
<path d="M172.764 23.5438L168.834 17.5561H171.7L173.917 21.4644L176.266 17.5561H179L175.069 23.5438V27.9977H172.764V23.5438Z" fill="white"/>
</svg>
