<svg width="472" height="378" viewBox="0 0 472 378" fill="none" xmlns="http://www.w3.org/2000/svg">
<path d="M471.5 284.63C471.5 297.244 464.997 309.313 453.124 320.345C441.25 331.378 424.04 341.336 402.733 349.71C360.121 366.456 301.219 376.825 236.132 376.825C171.045 376.825 112.143 366.456 69.5307 349.71C48.2232 341.336 31.0138 331.378 19.1397 320.345C7.26629 309.313 0.763672 297.244 0.763672 284.63C0.763672 272.017 7.26629 259.948 19.1397 248.916C31.0138 237.883 48.2232 227.925 69.5307 219.551C112.143 202.805 171.045 192.436 236.132 192.436C301.219 192.436 360.121 202.805 402.733 219.551C424.04 227.925 441.25 237.883 453.124 248.916C464.997 259.948 471.5 272.017 471.5 284.63Z" stroke="#D6EF0E"/>
<path d="M471.5 220.652C471.5 233.265 464.997 245.334 453.124 256.366C441.25 267.399 424.04 277.358 402.733 285.731C360.121 302.478 301.219 312.846 236.132 312.846C171.045 312.846 112.143 302.478 69.5307 285.731C48.2232 277.358 31.0138 267.399 19.1397 256.366C7.26629 245.334 0.763672 233.265 0.763672 220.652C0.763672 208.039 7.26629 195.969 19.1397 184.937C31.0138 173.905 48.2232 163.946 69.5307 155.572C112.143 138.826 171.045 128.457 236.132 128.457C301.219 128.457 360.121 138.826 402.733 155.572C424.04 163.946 441.25 173.905 453.124 184.937C464.997 195.969 471.5 208.039 471.5 220.652Z" stroke="#D6EF0E"/>
<path d="M471.5 156.673C471.5 169.286 464.997 181.356 453.124 192.388C441.25 203.42 424.04 213.379 402.733 221.753C360.121 238.499 301.219 248.868 236.132 248.868C171.045 248.868 112.143 238.499 69.5307 221.753C48.2232 213.379 31.0138 203.42 19.1397 192.388C7.26629 181.356 0.763672 169.286 0.763672 156.673C0.763672 144.06 7.26629 131.991 19.1397 120.959C31.0138 109.926 48.2232 99.9673 69.5307 91.5936C112.143 74.8474 171.045 64.4787 236.132 64.4787C301.219 64.4787 360.121 74.8474 402.733 91.5936C424.04 99.9673 441.25 109.926 453.124 120.959C464.997 131.991 471.5 144.06 471.5 156.673Z" stroke="#D6EF0E"/>
<path d="M471.5 92.6944C471.5 105.308 464.997 117.377 453.124 128.409C441.25 139.442 424.04 149.4 402.733 157.774C360.121 174.52 301.219 184.889 236.132 184.889C171.045 184.889 112.143 174.52 69.5307 157.774C48.2232 149.4 31.0138 139.442 19.1397 128.409C7.26629 117.377 0.763672 105.308 0.763672 92.6944C0.763672 80.0811 7.26629 68.0119 19.1397 56.9799C31.0138 45.9472 48.2232 35.9886 69.5307 27.6149C112.143 10.8687 171.045 0.5 236.132 0.5C301.219 0.5 360.121 10.8687 402.733 27.6149C424.04 35.9886 441.25 45.9472 453.124 56.9799C464.997 68.0119 471.5 80.0811 471.5 92.6944Z" stroke="#D6EF0E"/>
</svg>
