<svg width="24" height="20" viewBox="0 0 24 20" fill="none" xmlns="http://www.w3.org/2000/svg">
<path d="M13.201 10C13.201 6.89946 15.6232 4.37546 18.6011 4.37546H21.6015V3.12515C21.6015 1.40263 20.256 0 18.6011 0L3.00043 0.00117236C1.34665 0.00117236 0 1.40263 0 3.12633V16.8748C0 18.5974 1.34553 20 3.00043 20H18.6011C20.2548 20 21.6015 18.5985 21.6015 16.8748V15.6245H18.6011C15.6231 15.6245 13.201 13.1005 13.201 10Z" fill="#D6EF0E"/>
<path d="M21.6004 5.62561H18.6C16.2847 5.62561 14.4003 7.58836 14.4003 9.99987C14.4003 12.4126 16.2847 14.3741 18.6 14.3741H21.6004C22.9245 14.3741 24 13.2527 24 11.8747V8.12501C24 6.74581 22.9234 5.62561 21.6004 5.62561ZM18.6011 11.2502C17.9385 11.2502 17.4007 10.6912 17.4007 9.99987C17.4007 9.30968 17.9373 8.74957 18.6011 8.74957C19.2637 8.74957 19.8015 9.30851 19.8015 9.99987C19.8015 10.6901 19.2649 11.2502 18.6011 11.2502Z" fill="#D6EF0E"/>
</svg>
