<svg width="648" height="492" viewBox="0 0 648 492" fill="none" xmlns="http://www.w3.org/2000/svg">
<g clip-path="url(#clip0_192_333)">
<g opacity="0.4">
<path d="M-60.618 0L739.825 0.381442L739.443 799.619L-61 799.238L-60.618 0ZM738.67 1.53411L-59.4636 1.15377L-59.8445 798.085L738.289 798.465L738.67 1.53411Z" fill="#0EACEF"/>
<path d="M739.231 31.0565L-60.0571 30.6756L-60.0577 31.8289L739.23 32.2097L739.231 31.0565Z" fill="#0EACEF"/>
<path d="M739.216 61.7901L-60.0723 61.4093L-60.0729 62.5625L739.215 62.9434L739.216 61.7901Z" fill="#0EACEF"/>
<path d="M739.203 92.4654L-60.0856 92.0845L-60.0862 93.2378L739.202 93.6187L739.203 92.4654Z" fill="#0EACEF"/>
<path d="M739.185 123.141L-60.1027 122.761L-60.1032 123.914L739.185 124.295L739.185 123.141Z" fill="#0EACEF"/>
<path d="M739.17 153.874L-60.1179 153.494L-60.1184 154.647L739.17 155.028L739.17 153.874Z" fill="#0EACEF"/>
<path d="M739.157 184.55L-60.1312 184.169L-60.1317 185.322L739.156 185.703L739.157 184.55Z" fill="#0EACEF"/>
<path d="M739.142 215.226L-60.1463 214.845L-60.1469 215.998L739.141 216.379L739.142 215.226Z" fill="#0EACEF"/>
<path d="M739.129 245.959L-60.1596 245.578L-60.1602 246.731L739.128 247.112L739.129 245.959Z" fill="#0EACEF"/>
<path d="M739.113 276.635L-60.1748 276.254L-60.1754 277.407L739.113 277.788L739.113 276.635Z" fill="#0EACEF"/>
<path d="M739.098 307.31L-60.19 306.929L-60.1905 308.082L739.098 308.463L739.098 307.31Z" fill="#0EACEF"/>
<path d="M739.083 338.044L-60.2052 337.663L-60.2057 338.816L739.082 339.197L739.083 338.044Z" fill="#0EACEF"/>
<path d="M739.068 368.719L-60.2204 368.338L-60.2209 369.491L739.067 369.872L739.068 368.719Z" fill="#0EACEF"/>
<path d="M739.055 399.394L-60.2337 399.013L-60.2342 400.167L739.054 400.547L739.055 399.394Z" fill="#0EACEF"/>
<path d="M739.039 430.128L-60.2488 429.747L-60.2494 430.9L739.039 431.281L739.039 430.128Z" fill="#0EACEF"/>
<path d="M739.024 460.803L-60.264 460.422L-60.2646 461.576L739.024 461.956L739.024 460.803Z" fill="#0EACEF"/>
<path d="M739.011 491.479L-60.2773 491.098L-60.2779 492.251L739.01 492.632L739.011 491.479Z" fill="#0EACEF"/>
<path d="M738.996 522.212L-60.2925 521.831L-60.293 522.985L738.995 523.366L738.996 522.212Z" fill="#0EACEF"/>
<path d="M738.98 552.888L-60.3077 552.507L-60.3082 553.66L738.98 554.041L738.98 552.888Z" fill="#0EACEF"/>
<path d="M738.967 583.621L-60.321 583.24L-60.3215 584.394L738.967 584.775L738.967 583.621Z" fill="#0EACEF"/>
<path d="M738.952 614.297L-60.3362 613.916L-60.3367 615.069L738.951 615.45L738.952 614.297Z" fill="#0EACEF"/>
<path d="M738.937 644.972L-60.3513 644.592L-60.3519 645.745L738.936 646.126L738.937 644.972Z" fill="#0EACEF"/>
<path d="M738.922 675.706L-60.3665 675.325L-60.3671 676.478L738.921 676.859L738.922 675.706Z" fill="#0EACEF"/>
<path d="M738.905 706.381L-60.3836 706L-60.3842 707.153L738.904 707.534L738.905 706.381Z" fill="#0EACEF"/>
<path d="M738.891 737.057L-60.3969 736.676L-60.3974 737.829L738.891 738.21L738.891 737.057Z" fill="#0EACEF"/>
<path d="M738.876 767.79L-60.4121 767.409L-60.4126 768.562L738.875 768.943L738.876 767.79Z" fill="#0EACEF"/>
<path d="M-28.7399 0.591662L-29.8948 0.591112L-30.2762 798.676L-29.1213 798.676L-28.7399 0.591662Z" fill="#0EACEF"/>
<path d="M2.03934 0.606351L0.884388 0.605801L0.502975 798.69L1.65794 798.691L2.03934 0.606351Z" fill="#0EACEF"/>
<path d="M32.7635 0.620981L31.6085 0.620431L31.2271 798.705L32.3821 798.705L32.7635 0.620981Z" fill="#0EACEF"/>
<path d="M63.4762 0.635611L62.3213 0.63506L61.9399 798.719L63.0948 798.72L63.4762 0.635611Z" fill="#0EACEF"/>
<path d="M94.2574 0.650359L93.1024 0.649809L92.721 798.734L93.876 798.735L94.2574 0.650359Z" fill="#0EACEF"/>
<path d="M124.98 0.664989L123.825 0.664438L123.443 798.749L124.598 798.749L124.98 0.664989Z" fill="#0EACEF"/>
<path d="M155.704 0.6795L154.549 0.67895L154.167 798.763L155.322 798.764L155.704 0.6795Z" fill="#0EACEF"/>
<path d="M186.485 0.694248L185.33 0.693698L184.949 798.778L186.103 798.779L186.485 0.694248Z" fill="#0EACEF"/>
<path d="M217.205 0.708878L216.05 0.708328L215.669 798.793L216.824 798.793L217.205 0.708878Z" fill="#0EACEF"/>
<path d="M247.929 0.723508L246.774 0.722957L246.393 798.807L247.548 798.808L247.929 0.723508Z" fill="#0EACEF"/>
<path d="M278.709 0.738256L277.554 0.737705L277.172 798.822L278.327 798.823L278.709 0.738256Z" fill="#0EACEF"/>
<path d="M309.433 0.752826L308.278 0.752276L307.896 798.837L309.051 798.837L309.433 0.752826Z" fill="#0EACEF"/>
<path d="M340.147 0.767456L338.992 0.766906L338.611 798.851L339.766 798.852L340.147 0.767456Z" fill="#0EACEF"/>
<path d="M370.927 0.782204L369.772 0.781654L369.39 798.866L370.545 798.867L370.927 0.782204Z" fill="#0EACEF"/>
<path d="M401.653 0.796775L400.498 0.796224L400.116 798.881L401.271 798.881L401.653 0.796775Z" fill="#0EACEF"/>
<path d="M432.373 0.811404L431.218 0.810854L430.837 798.895L431.992 798.896L432.373 0.811404Z" fill="#0EACEF"/>
<path d="M463.152 0.826093L461.997 0.825543L461.616 798.91L462.771 798.911L463.152 0.826093Z" fill="#0EACEF"/>
<path d="M493.876 0.840723L492.721 0.840173L492.34 798.925L493.495 798.925L493.876 0.840723Z" fill="#0EACEF"/>
<path d="M524.6 0.855353L523.446 0.854802L523.064 798.939L524.219 798.94L524.6 0.855353Z" fill="#0EACEF"/>
<path d="M555.38 0.870101L554.225 0.869551L553.843 798.954L554.998 798.955L555.38 0.870101Z" fill="#0EACEF"/>
<path d="M586.094 0.884731L584.939 0.88418L584.558 798.969L585.713 798.969L586.094 0.884731Z" fill="#0EACEF"/>
<path d="M616.874 0.899301L615.719 0.898751L615.337 798.983L616.492 798.984L616.874 0.899301Z" fill="#0EACEF"/>
<path d="M647.6 0.91399L646.445 0.91344L646.063 798.998L647.218 798.998L647.6 0.91399Z" fill="#0EACEF"/>
<path d="M678.322 0.92862L677.167 0.92807L676.786 799.013L677.94 799.013L678.322 0.92862Z" fill="#0EACEF"/>
<path d="M709.103 0.94325L707.948 0.942699L707.567 799.027L708.721 799.028L709.103 0.94325Z" fill="#0EACEF"/>
<path d="M738.557 0.380906L1539 0.762348L1538.62 800L738.175 799.619L738.557 0.380906ZM1537.84 1.91501L739.711 1.53467L739.33 798.466L1537.46 798.846L1537.84 1.91501Z" fill="#0EACEF"/>
<path d="M1538.41 31.4374L739.117 31.0565L739.116 32.2097L1538.4 32.5906L1538.41 31.4374Z" fill="#0EACEF"/>
<path d="M1538.39 62.171L739.102 61.7901L739.101 62.9434L1538.39 63.3242L1538.39 62.171Z" fill="#0EACEF"/>
<path d="M1538.38 92.8464L739.088 92.4655L739.088 93.6187L1538.38 93.9996L1538.38 92.8464Z" fill="#0EACEF"/>
<path d="M1538.36 123.522L739.073 123.141L739.073 124.295L1538.36 124.675L1538.36 123.522Z" fill="#0EACEF"/>
<path d="M1538.35 154.255L739.058 153.874L739.057 155.028L1538.35 155.409L1538.35 154.255Z" fill="#0EACEF"/>
<path d="M1538.33 184.931L739.045 184.55L739.044 185.703L1538.33 186.084L1538.33 184.931Z" fill="#0EACEF"/>
<path d="M1538.32 215.607L739.03 215.226L739.029 216.379L1538.32 216.76L1538.32 215.607Z" fill="#0EACEF"/>
<path d="M1538.3 246.34L739.016 245.959L739.016 247.112L1538.3 247.493L1538.3 246.34Z" fill="#0EACEF"/>
<path d="M1538.29 277.016L739.001 276.635L739.001 277.788L1538.29 278.169L1538.29 277.016Z" fill="#0EACEF"/>
<path d="M1538.27 307.691L738.984 307.31L738.984 308.463L1538.27 308.844L1538.27 307.691Z" fill="#0EACEF"/>
<path d="M1538.26 338.425L738.969 338.044L738.968 339.197L1538.26 339.578L1538.26 338.425Z" fill="#0EACEF"/>
<path d="M1538.24 369.1L738.954 368.719L738.953 369.872L1538.24 370.253L1538.24 369.1Z" fill="#0EACEF"/>
<path d="M1538.23 399.775L738.94 399.394L738.94 400.547L1538.23 400.928L1538.23 399.775Z" fill="#0EACEF"/>
<path d="M1538.21 430.509L738.925 430.128L738.925 431.281L1538.21 431.662L1538.21 430.509Z" fill="#0EACEF"/>
<path d="M1538.2 461.184L738.91 460.803L738.909 461.957L1538.2 462.337L1538.2 461.184Z" fill="#0EACEF"/>
<path d="M1538.18 491.86L738.897 491.479L738.896 492.632L1538.18 493.013L1538.18 491.86Z" fill="#0EACEF"/>
<path d="M1538.17 522.593L738.882 522.212L738.881 523.365L1538.17 523.746L1538.17 522.593Z" fill="#0EACEF"/>
<path d="M1538.15 553.268L738.865 552.888L738.864 554.041L1538.15 554.422L1538.15 553.268Z" fill="#0EACEF"/>
<path d="M1538.14 584.002L738.851 583.621L738.851 584.775L1538.14 585.155L1538.14 584.002Z" fill="#0EACEF"/>
<path d="M1538.12 614.677L738.836 614.297L738.835 615.45L1538.12 615.831L1538.12 614.677Z" fill="#0EACEF"/>
<path d="M1538.11 645.353L738.823 644.972L738.822 646.126L1538.11 646.507L1538.11 645.353Z" fill="#0EACEF"/>
<path d="M1538.1 676.086L738.808 675.706L738.807 676.859L1538.1 677.24L1538.1 676.086Z" fill="#0EACEF"/>
<path d="M1538.08 706.762L738.792 706.381L738.792 707.534L1538.08 707.915L1538.08 706.762Z" fill="#0EACEF"/>
<path d="M1538.07 737.438L738.779 737.057L738.779 738.21L1538.07 738.591L1538.07 737.438Z" fill="#0EACEF"/>
<path d="M1538.05 768.171L738.764 767.79L738.763 768.943L1538.05 769.324L1538.05 768.171Z" fill="#0EACEF"/>
<path d="M770.436 0.972533L769.281 0.971982L768.9 799.056L770.055 799.057L770.436 0.972533Z" fill="#0EACEF"/>
<path d="M801.215 0.987222L800.06 0.986671L799.679 799.071L800.834 799.072L801.215 0.987222Z" fill="#0EACEF"/>
<path d="M831.938 1.00191L830.783 1.00136L830.401 799.086L831.556 799.086L831.938 1.00191Z" fill="#0EACEF"/>
<path d="M862.648 1.01648L861.493 1.01593L861.112 799.1L862.267 799.101L862.648 1.01648Z" fill="#0EACEF"/>
<path d="M893.43 1.03123L892.275 1.03068L891.893 799.115L893.048 799.116L893.43 1.03123Z" fill="#0EACEF"/>
<path d="M924.152 1.0458L922.997 1.04525L922.615 799.13L923.77 799.13L924.152 1.0458Z" fill="#0EACEF"/>
<path d="M954.876 1.06043L953.721 1.05988L953.34 799.144L954.495 799.145L954.876 1.06043Z" fill="#0EACEF"/>
<path d="M985.657 1.07518L984.502 1.07463L984.121 799.159L985.276 799.16L985.657 1.07518Z" fill="#0EACEF"/>
<path d="M1016.38 1.08981L1015.23 1.08926L1014.84 799.174L1016 799.174L1016.38 1.08981Z" fill="#0EACEF"/>
<path d="M1047.11 1.10444L1045.95 1.10389L1045.57 799.188L1046.72 799.189L1047.11 1.10444Z" fill="#0EACEF"/>
<path d="M1077.88 1.11913L1076.73 1.11858L1076.35 799.203L1077.5 799.204L1077.88 1.11913Z" fill="#0EACEF"/>
<path d="M1108.61 1.1337L1107.45 1.13315L1107.07 799.218L1108.23 799.218L1108.61 1.1337Z" fill="#0EACEF"/>
<path d="M1139.32 1.14833L1138.17 1.14778L1137.79 799.232L1138.94 799.233L1139.32 1.14833Z" fill="#0EACEF"/>
<path d="M1170.1 1.16307L1168.95 1.16252L1168.56 799.247L1169.72 799.247L1170.1 1.16307Z" fill="#0EACEF"/>
<path d="M1200.82 1.1777L1199.67 1.17715L1199.29 799.262L1200.44 799.262L1200.82 1.1777Z" fill="#0EACEF"/>
<path d="M1231.55 1.19227L1230.39 1.19172L1230.01 799.276L1231.17 799.277L1231.55 1.19227Z" fill="#0EACEF"/>
<path d="M1262.33 1.20702L1261.17 1.20647L1260.79 799.291L1261.95 799.292L1262.33 1.20702Z" fill="#0EACEF"/>
<path d="M1293.05 1.22165L1291.9 1.2211L1291.52 799.306L1292.67 799.306L1293.05 1.22165Z" fill="#0EACEF"/>
<path d="M1323.77 1.23628L1322.62 1.23573L1322.24 799.32L1323.39 799.321L1323.77 1.23628Z" fill="#0EACEF"/>
<path d="M1354.56 1.25097L1353.4 1.25042L1353.02 799.335L1354.17 799.335L1354.56 1.25097Z" fill="#0EACEF"/>
<path d="M1385.27 1.26554L1384.11 1.26499L1383.73 799.349L1384.89 799.35L1385.27 1.26554Z" fill="#0EACEF"/>
<path d="M1416.05 1.28017L1414.89 1.27962L1414.51 799.364L1415.67 799.365L1416.05 1.28017Z" fill="#0EACEF"/>
<path d="M1446.77 1.29492L1445.62 1.29437L1445.24 799.379L1446.39 799.379L1446.77 1.29492Z" fill="#0EACEF"/>
<path d="M1477.5 1.30955L1476.34 1.309L1475.96 799.393L1477.12 799.394L1477.5 1.30955Z" fill="#0EACEF"/>
<path d="M1508.28 1.32418L1507.12 1.32363L1506.74 799.408L1507.9 799.409L1508.28 1.32418Z" fill="#0EACEF"/>
</g>
</g>
<defs>
<clipPath id="clip0_192_333">
<rect width="648" height="492" fill="white"/>
</clipPath>
</defs>
</svg>
