<svg width="16" height="16" viewBox="0 0 16 16" fill="none" xmlns="http://www.w3.org/2000/svg">
<path d="M8 1.44C10.1415 1.44 10.3877 1.45231 11.2369 1.48923C12.0123 1.52615 12.4431 1.64923 12.7262 1.76C13.0954 1.90769 13.3662 2.08 13.6492 2.36308C13.9323 2.64615 14.1046 2.90462 14.2523 3.28615C14.3631 3.56923 14.4985 3.98769 14.5231 4.77538C14.56 5.62462 14.5723 5.87077 14.5723 8.01231C14.5723 10.1538 14.56 10.4 14.5231 11.2492C14.4862 12.0246 14.3631 12.4554 14.2523 12.7385C14.1046 13.1077 13.9323 13.3785 13.6492 13.6615C13.3662 13.9446 13.1077 14.1169 12.7262 14.2646C12.4431 14.3754 12.0246 14.5108 11.2369 14.5354C10.3877 14.5723 10.1415 14.5846 8 14.5846C5.85846 14.5846 5.61232 14.5723 4.76309 14.5354C3.9877 14.4985 3.55692 14.3754 3.27384 14.2646C2.90461 14.1169 2.63384 13.9446 2.35077 13.6615C2.06769 13.3785 1.89539 13.12 1.7477 12.7385C1.63693 12.4554 1.50154 12.0369 1.47692 11.2492C1.44 10.4 1.42769 10.1538 1.42769 8.01231C1.42769 5.87077 1.44 5.62462 1.47692 4.77538C1.51385 4 1.63693 3.56923 1.7477 3.28615C1.89539 2.91692 2.06769 2.64615 2.35077 2.36308C2.63384 2.08 2.8923 1.90769 3.27384 1.76C3.55692 1.64923 3.97539 1.51385 4.76309 1.48923C5.61232 1.45231 5.87077 1.44 8 1.44ZM8 0C5.82154 0 5.55078 0.0123079 4.70155 0.049231C3.85232 0.086154 3.26154 0.221538 2.75693 0.418461C2.2277 0.627692 1.78462 0.898461 1.34154 1.34154C0.898465 1.78462 0.627695 2.22769 0.418465 2.75692C0.221541 3.26154 0.0861569 3.85231 0.0492338 4.70154C0.0123107 5.55077 0 5.83385 0 8C0 10.1785 0.0123107 10.4492 0.0492338 11.2985C0.0861569 12.1477 0.221541 12.7385 0.418465 13.2431C0.627695 13.7723 0.898465 14.2154 1.34154 14.6585C1.78462 15.1015 2.2277 15.3723 2.75693 15.5815C3.26154 15.7785 3.85232 15.9138 4.70155 15.9508C5.55078 15.9877 5.83385 16 8 16C10.1785 16 10.4492 15.9877 11.2985 15.9508C12.1477 15.9138 12.7385 15.7785 13.2431 15.5815C13.7723 15.3723 14.2154 15.1015 14.6585 14.6585C15.1015 14.2154 15.3723 13.7723 15.5815 13.2431C15.7785 12.7385 15.9138 12.1477 15.9508 11.2985C15.9877 10.4492 16 10.1662 16 8C16 5.83385 15.9877 5.55077 15.9508 4.70154C15.9138 3.85231 15.7785 3.26154 15.5815 2.75692C15.3723 2.22769 15.1015 1.78462 14.6585 1.34154C14.2154 0.898461 13.7723 0.627692 13.2431 0.418461C12.7385 0.221538 12.1477 0.086154 11.2985 0.049231C10.4492 0.0123079 10.1785 0 8 0Z" fill="white"/>
<path d="M7.99999 3.90149C5.72307 3.90149 3.88922 5.74764 3.88922 8.01226C3.88922 10.2769 5.73538 12.123 7.99999 12.123C10.2646 12.123 12.1108 10.2769 12.1108 8.01226C12.1108 5.74764 10.2769 3.90149 7.99999 3.90149ZM7.99999 10.683C6.52307 10.683 5.32923 9.48918 5.32923 8.01226C5.32923 6.53534 6.52307 5.34149 7.99999 5.34149C9.47692 5.34149 10.6708 6.53534 10.6708 8.01226C10.6708 9.48918 9.47692 10.683 7.99999 10.683Z" fill="white"/>
<path d="M12.2831 4.68929C12.8133 4.68929 13.2431 4.25948 13.2431 3.72929C13.2431 3.19909 12.8133 2.76929 12.2831 2.76929C11.7529 2.76929 11.3231 3.19909 11.3231 3.72929C11.3231 4.25948 11.7529 4.68929 12.2831 4.68929Z" fill="white"/>
</svg>
